<svg width="83" height="50" viewBox="0 0 83 50" fill="none" xmlns="http://www.w3.org/2000/svg">
<path fill-rule="evenodd" clip-rule="evenodd" d="M6.27665 16.1671C7.97578 8.99021 10.347 3.65189 13.3902 0.152182L14.113 2.09808e-05C14.747 0.228263 15.064 0.595985 15.064 1.10319V1.33143C11.8432 5.33834 9.47203 11.3867 7.95042 19.4767C9.26915 21.5562 10.6132 22.596 11.9827 22.596H13.1619L14.8357 22.2536H15.064C15.4697 22.4311 15.6726 22.7481 15.6726 23.2046V23.4328C15.6726 24.219 14.6836 24.7262 12.7055 24.9545C11.0824 24.9545 9.40863 24.1683 7.68414 22.596H7.4559C7.2023 25.4109 6.93601 29.215 6.65705 34.008C6.22593 34.4138 5.85821 34.6167 5.55388 34.6167C4.86916 34.3631 4.5268 33.97 4.5268 33.4374C4.55216 29.5066 4.89452 25.0179 5.55388 19.9712C3.88011 17.2576 2.02882 12.6548 0 6.16255C0 5.90895 0.266282 5.56658 0.798846 5.13546H1.40749C1.83861 5.13546 3.22075 8.54641 5.55388 15.3683L6.16253 16.1671H6.27665ZM76.0376 10.347C77.2041 10.347 77.7874 10.9049 77.7874 12.0208C77.9396 12.0208 78.0156 12.211 78.0156 12.5914H78.1678L78.0156 13.6945L78.1678 21.3787L77.9396 27.4651C80.222 27.4651 81.7563 29.1389 82.5424 32.4864C82.5424 33.1712 82.0733 33.5642 81.1349 33.6657C80.7038 33.6657 80.222 32.7147 79.6894 30.8127C79.1822 30.0772 78.5989 29.7095 77.9396 29.7095H77.7874C76.9759 35.1112 76.2658 37.8121 75.6571 37.8121C74.9217 39.1562 73.8566 39.8282 72.4618 39.8282C70.4076 39.3464 69.3805 38.3193 69.3805 36.7469V36.5187C69.3805 34.1348 71.0796 31.5481 74.4779 28.7585L75.6571 28.0357L75.8093 23.9274V22.9764H75.6571C74.7949 24.0669 73.9707 24.6121 73.1845 24.6121H72.9563C71.2064 24.6121 70.2047 23.268 69.9511 20.5798V19.7429C69.9511 16.4968 71.143 13.6819 73.5269 11.298C74.2623 10.664 75.0992 10.347 76.0376 10.347ZM72.2335 19.2484V21.0743C72.335 21.9112 72.5252 22.3297 72.8041 22.3297H73.1845C73.8946 22.3297 74.7695 19.7176 75.8093 14.4934V12.5914C74.2877 12.5914 73.0958 14.8104 72.2335 19.2484ZM71.6249 36.5948C71.7263 37.2288 72.0814 37.5458 72.69 37.5458C73.9073 37.5458 74.7822 35.3775 75.3148 31.0409H75.0865C72.7788 33.0444 71.6249 34.8957 71.6249 36.5948ZM64.308 12.1349C66.4636 12.3124 67.5414 13.3649 67.5414 15.2922L67.6175 15.7868L67.5414 21.721C67.5414 22.4058 67.9345 23.3314 68.7206 24.498V24.5741C68.5177 25.3095 68.15 25.6772 67.6175 25.6772C66.0451 25.0179 65.259 23.6231 65.259 21.4928V20.9983L65.1448 20.9222L65.259 20.77V20.694L65.3731 15.4444C65.3731 14.7089 65.0561 14.3412 64.4221 14.3412H63.9656C62.6976 14.8484 62.0636 17.6254 62.0636 22.672C62.0636 24.4219 61.6198 25.2968 60.7322 25.2968C60.0474 25.2968 59.6924 24.8657 59.667 24.0035V20.1994C59.667 15.2795 60.0982 12.8196 60.9604 12.8196L61.3408 12.7055L62.1397 12.8196C62.8244 12.3631 63.5471 12.1349 64.308 12.1349ZM55.9228 16.6236C53.5136 13.0986 51.8018 11.3234 50.7874 11.298C49.139 11.298 48.3148 12.7562 48.3148 15.6726V16.6236L47.9344 16.7758V16.6236C47.0721 16.8012 46.641 17.1689 46.641 17.7268C46.641 18.513 47.2243 18.9948 48.3909 19.1723C49.2024 23.0271 50.6352 24.9545 52.6894 24.9545C53.4756 24.8023 54.1476 24.5614 54.7055 24.2317C56.8358 22.7354 57.9009 21.683 57.9009 21.0743C57.622 20.3389 57.2289 19.9712 56.7217 19.9712H56.4934C54.845 21.721 53.6151 22.596 52.8035 22.596H52.347C51.7638 22.596 51.2058 21.4548 50.6733 19.1723V19.0202L50.7874 18.9061C54.2617 18.5256 55.9989 17.9804 55.9989 17.2703L55.9228 16.6236ZM50.6733 14.0369H51.0156C51.5482 14.468 52.1442 15.1781 52.8035 16.1672C52.8035 16.4208 52.0934 16.5729 50.6733 16.6236H50.5211V15.4444L50.6733 14.0369ZM31.1439 11.6403C31.3215 11.0063 31.7272 10.6893 32.3612 10.6893C32.9952 10.6893 33.4137 11.3233 33.6166 12.5913H33.7687L35.5186 12.2109C36.3301 12.2109 37.1163 12.9718 37.8771 14.4934H38.0292C39.1451 12.7435 40.2863 11.8686 41.4529 11.8686C43.9382 12.3251 45.1808 13.9481 45.1808 16.7377L45.2569 18.0692L44.9145 25.7533V26.4761C44.9145 27.1101 44.5214 27.4778 43.7353 27.5792C42.9491 27.5792 42.556 26.6536 42.556 24.8023L43.0125 17.917C43.0125 15.381 42.4165 14.113 41.2246 14.113C40.5399 14.113 39.7157 15.7741 38.752 19.0962C38.2702 22.9003 37.8771 24.8023 37.5728 24.8023C37.1416 24.8023 36.9261 24.891 36.9261 25.0686C36.1399 24.9671 35.7468 24.5614 35.7468 23.8513L36.2413 19.2484C36.1653 16.0784 35.8483 14.4934 35.2903 14.4934H35.1762C34.5422 14.9752 34.2252 15.9262 34.2252 17.3464V19.3625L34.073 25.1827C33.8955 25.8167 33.5024 26.1337 32.8938 26.1337C32.3612 26.1337 32.0189 25.6899 31.8667 24.8023L31.7145 20.3135L31.9428 16.6236C31.7906 14.7216 31.5243 13.0605 31.1439 11.6403ZM20.2969 13.1239L19.6122 13.5043C19.0542 15.3303 18.7753 17.2576 18.7753 19.2865V19.6669L18.8894 20.8841C19.498 24.1049 20.5758 25.7153 22.1228 25.7153C23.1626 25.7153 24.1897 24.6501 25.2041 22.5199C26.041 24.3458 26.9159 25.2588 27.8289 25.2588C28.6404 25.2588 29.2744 24.7769 29.7309 23.8133C29.7309 23.306 29.3632 22.913 28.6277 22.634L28.0571 22.8622C27.6513 22.8622 27.2836 21.328 26.9539 18.2594C26.9539 15.4697 26.5609 14.0749 25.7747 14.0749C25.445 14.0749 25.1026 14.2271 24.7476 14.5314C23.7332 20.3389 22.8583 23.2426 22.1228 23.2426H21.8946C21.3113 22.0761 21.0197 20.9983 21.0197 20.0092C21.0197 18.0311 21.2225 16.1038 21.6283 14.2271C21.3493 13.4917 20.9055 13.1239 20.2969 13.1239ZM14.1605 36.4262L14.1605 36.4262C13.844 35.803 13.0825 35.5534 12.4583 35.8687C11.8332 36.1845 11.5825 36.9472 11.8982 37.5723L13.03 37.0005C11.8982 37.5723 11.8986 37.5729 11.8989 37.5737L11.8998 37.5753L11.9019 37.5795L11.9078 37.591L11.9265 37.6268C11.9421 37.6563 11.9638 37.6968 11.9919 37.7475C12.048 37.8491 12.1294 37.9919 12.2375 38.1701C12.4535 38.5262 12.7762 39.0242 13.2154 39.6161C14.0931 40.799 15.4408 42.3631 17.3377 43.9184C21.1471 47.0417 27.1368 50.0984 35.8688 49.9976C44.2795 49.9004 50.0998 46.8409 53.8188 43.7733C55.6718 42.2448 56.9972 40.72 57.8635 39.5699C58.297 38.9943 58.6167 38.5111 58.8311 38.1659C58.9384 37.9933 59.0194 37.8549 59.0753 37.7566C59.1032 37.7075 59.1248 37.6683 59.1403 37.6398L59.159 37.6052L59.1649 37.5941L59.167 37.5901L59.1678 37.5885C59.1682 37.5878 59.1685 37.5871 58.0444 37.0005L59.1685 37.5871C59.4925 36.9663 59.2518 36.2004 58.631 35.8764C58.0105 35.5526 57.2451 35.7928 56.9208 36.4129L56.9202 36.4139L56.9129 36.4275C56.9046 36.4427 56.8904 36.4684 56.8703 36.5038C56.8301 36.5747 56.7659 36.6845 56.6769 36.8278C56.4988 37.1146 56.2216 37.5346 55.8378 38.0441C55.0696 39.0639 53.8787 40.4364 52.2051 41.8169C48.8708 44.5672 43.5961 47.3721 35.8396 47.4617C27.7705 47.5549 22.3481 44.747 18.9457 41.9573C17.2367 40.556 16.0286 39.1515 15.2519 38.1049C14.864 37.582 14.5849 37.1501 14.4058 36.8549C14.3164 36.7074 14.252 36.5942 14.2117 36.5212C14.1915 36.4848 14.1774 36.4583 14.1691 36.4427L14.1611 36.4274L14.1605 36.4262Z" fill="#262626"/>
</svg>
